<svg width="753" height="1062" xmlns="http://www.w3.org/2000/svg" xmlns:undefined="http://www.inkscape.org/namespaces/inkscape" xmlns:xlink="http://www.w3.org/1999/xlink">
 <defs>
  <linearGradient id="imagebot_209">
   <stop stop-color="#ffd42a" id="imagebot_224" offset="0"/>
   <stop stop-color="#ffd42a" stop-opacity="0" id="imagebot_223" offset="1"/>
  </linearGradient>
  <linearGradient id="imagebot_210">
   <stop stop-color="#ffd42a" id="imagebot_222" offset="0"/>
   <stop stop-color="#ffd42a" stop-opacity="0" id="imagebot_221" offset="1"/>
  </linearGradient>
  <linearGradient id="imagebot_211">
   <stop stop-color="#ffd42a" id="imagebot_220" offset="0"/>
   <stop stop-color="#ffd42a" stop-opacity="0" id="imagebot_219" offset="1"/>
  </linearGradient>
  <linearGradient id="imagebot_77">
   <stop stop-color="#ffd42a" id="imagebot_218" offset="0"/>
   <stop stop-color="#ffd42a" stop-opacity="0" id="imagebot_217" offset="1"/>
  </linearGradient>
  <filter height="1.65435" y="-0.32718" width="1.27408" x="-0.13704" id="imagebot_43">
   <feGaussianBlur id="imagebot_216" stdDeviation="24.64714" />
  </filter>
  <filter id="imagebot_19">
   <feGaussianBlur id="imagebot_214" stdDeviation="2.1235" />
  </filter>
  <filter height="1.06102" y="-0.03051" width="1.20134" x="-0.10067" id="imagebot_33">
   <feGaussianBlur id="imagebot_213" stdDeviation="1.39604" />
  </filter>
  <filter id="imagebot_39">
   <feGaussianBlur id="imagebot_212" stdDeviation="1.43575" />
  </filter>
  <radialGradient gradientUnits="userSpaceOnUse" gradientTransform="matrix(0.99859806,0.07649264,-0.06492722,1.7700395,34.6973,-428.08004)" r="263.26927" fy="526.26331" fx="376.96811" cy="526.26331" cx="376.96811" id="imagebot_46" xlink:href="#imagebot_77"/>
  <radialGradient gradientUnits="userSpaceOnUse" gradientTransform="matrix(2.37805 -0.027288 0.00656331 0.571966 -614.909 238.474)" r="104.70312" fy="723.48438" fx="424.82812" cy="723.48438" cx="424.82812" id="imagebot_35" xlink:href="#imagebot_211"/>
  <linearGradient y2="0.5" x2="1" y1="0.5" x1="0" id="imagebot_41" xlink:href="#imagebot_210"/>
  <linearGradient y2="0.5" x2="1" y1="0.5" x1="0" id="imagebot_31" xlink:href="#imagebot_209"/>
  <radialGradient r="263.26927" fy="526.26331" fx="376.96811" cy="526.26331" cx="376.96811" gradientTransform="matrix(0.99859806,0.07649264,-0.06492722,1.7700395,34.6973,-428.08004)" gradientUnits="userSpaceOnUse" id="imagebot_48" xlink:href="#imagebot_77"/>
 </defs>
 <metadata id="imagebot_74">image/svg+xml</metadata>
 <g id="imagebot_2" label="Layer 1">
  <g label="Layer 1" transform="translate(3.84375 0.0624999) matrix(0.989764 -0.142713 0.142713 0.989764 -104.956 -47.8732)" id="imagebot_64">
   <path fill="#ffe680" id="imagebot_70" d="M221.33636,544.19545L348.47935,542.7802C343.89505,451.70821 274.88666,396.38388 235.64451,329.91123C246.37227,404.15865 240.22593,475.33621 221.33636,544.19545z"/>
   <path fill="#ff932a" d="M237.14286,543.79075L364.28571,542.36218C359.69185,451.29068 290.67767,395.97357 251.42857,329.50504C262.1641,403.75133 256.02521,474.92953 237.14286,543.79075z" id="imagebot_69"/>
   <path fill="#ffb041" d="M251.78571,474.86219C299.049,459.43866 304.91036,444.79002 320.58383,428.06859C290.35697,382.0328 269.87273,355.66731 253.92857,344.86219C255.78161,386.70325 256.68468,399.82179 251.78571,474.86219z" id="imagebot_68"/>
   <path fill="#ff932a" stroke="#ffa225" id="imagebot_67" d="M328.57142,345.21933C328.57142,384.66824 302.0283,416.6479 269.28571,416.6479C236.54311,416.6479 209.99999,384.66824 209.99999,345.21933C209.99999,305.77042 236.54311,273.79076 269.28571,273.79076C302.0283,273.79076 328.57142,305.77042 328.57142,345.21933z" transform="matrix(0.54588525,0,0,0.57308478,106.57233,142.37939)"/>
   <path fill="#ffb041" transform="matrix(0.36516236,0,0,0.38308479,150.52414,205.54249)" d="M328.57142,345.21933C328.57142,384.66824 302.0283,416.6479 269.28571,416.6479C236.54311,416.6479 209.99999,384.66824 209.99999,345.21933C209.99999,305.77042 236.54311,273.79076 269.28571,273.79076C302.0283,273.79076 328.57142,305.77042 328.57142,345.21933z" id="imagebot_66"/>
   <path fill="#ffe680" id="imagebot_65" d="M328.57142,345.21933C328.57142,384.66824 302.0283,416.6479 269.28571,416.6479C236.54311,416.6479 209.99999,384.66824 209.99999,345.21933C209.99999,305.77042 236.54311,273.79076 269.28571,273.79076C302.0283,273.79076 328.57142,305.77042 328.57142,345.21933z" transform="matrix(0.24601673,0,0,0.24308479,178.57518,250.94426)"/>
  </g>
  <g label="Layer 1" transform="translate(3.84375 0.0624999) matrix(-0.994438 -0.10532 -0.10532 0.994438 822.956 -61.8014)" id="imagebot_57">
   <path fill="#ffe680" d="M221.33636,544.19545L348.47935,542.7802C343.89505,451.70821 274.88666,396.38388 235.64451,329.91123C246.37227,404.15865 240.22593,475.33621 221.33636,544.19545z" id="imagebot_63"/>
   <path fill="#ff932a" id="imagebot_62" d="M237.14286,543.79075L364.28571,542.36218C359.69185,451.29068 290.67767,395.97357 251.42857,329.50504C262.1641,403.75133 256.02521,474.92953 237.14286,543.79075z"/>
   <path fill="#ffb041" id="imagebot_61" d="M251.78571,474.86219C299.049,459.43866 303.58729,442.39088 319.26076,425.66945C289.0339,379.63366 269.87273,355.66731 253.92857,344.86219C255.78161,386.70325 256.68468,399.82179 251.78571,474.86219z"/>
   <path fill="#ff932a" transform="matrix(0.54588525,0,0,0.57308478,106.57233,142.37939)" d="M328.57142,345.21933C328.57142,384.66824 302.0283,416.6479 269.28571,416.6479C236.54311,416.6479 209.99999,384.66824 209.99999,345.21933C209.99999,305.77042 236.54311,273.79076 269.28571,273.79076C302.0283,273.79076 328.57142,305.77042 328.57142,345.21933z" id="imagebot_60"/>
   <path fill="#ffb041" id="imagebot_59" d="M328.57142,345.21933C328.57142,384.66824 302.0283,416.6479 269.28571,416.6479C236.54311,416.6479 209.99999,384.66824 209.99999,345.21933C209.99999,305.77042 236.54311,273.79076 269.28571,273.79076C302.0283,273.79076 328.57142,305.77042 328.57142,345.21933z" transform="matrix(0.36516236,0,0,0.38308479,150.52414,205.54249)"/>
   <path fill="#ffe680" transform="matrix(0.24601673,0,0,0.24308479,178.57518,250.94426)" d="M328.57142,345.21933C328.57142,384.66824 302.0283,416.6479 269.28571,416.6479C236.54311,416.6479 209.99999,384.66824 209.99999,345.21933C209.99999,305.77042 236.54311,273.79076 269.28571,273.79076C302.0283,273.79076 328.57142,305.77042 328.57142,345.21933z" id="imagebot_58"/>
  </g>
  <path label="Layer 1" fill="#ffa600" d="M 596.23506 527.7113698807907 C 455.6795 559.9229798807908 313.15471 568.8393498807907 156.84083 527.7113698807907 L 156.84083 528.5052998807907 L 184.83609 632.5100498807907 C 184.24601 634.6872198807907 183.92999 636.8825998807907 183.92999 639.1140898807907 C 183.92999 677.1698198807907 271.70722 708.0055098807907 379.99048 708.0055098807907 C 488.27375 708.0055098807907 576.05098 677.1698198807907 576.05098 639.1140898807907 C 576.05098 637.5004598807907 575.89283 635.9003498807907 575.58231 634.3144298807907 L 596.23506 527.7474598807908 L 596.23506 527.7113698807907 z" id="imagebot_56"/>
  <path label="Layer 1" fill="#ffd42a" stroke="#ffa225" stroke-width="2" stroke-miterlimit="4" id="imagebot_55" d="M 367.95982 104.14285988079071 C 367.95982 104.14285988079071 282.98009 436.1151898807907 245.11607 445.9866098807907 C 207.25205 455.8580298807907 80.95982 284.4241098807907 80.95982 284.4241098807907 L 156.80357 528.3616098807908 L 156.80357 527.6741098807908 C 355.89316 574.3473398807907 472.21691 553.7764098807908 596.27232 527.6741098807908 L 649.36607 290.4866098807907 C 649.36607 290.4866098807907 525.32036 457.6491098807907 490.83482 445.9866098807907 C 456.34928 434.32410988079073 367.95982 104.14285988079071 367.95982 104.14285988079071 z"/>
  <g label="Layer 1" transform="translate(3.84375 0.0624999) translate(-28.5714 -82.8571)" id="imagebot_52">
   <path fill="#ffd42a" d="M601.60903,634.70126C445.63909,712.07759 319.3789,687.44233 196.8816,634.70126L196.8816,635.25379L222.6681,707.63552C222.12459,709.15072 221.8335,710.67859 221.8335,712.23159C221.8335,738.71634 302.68539,760.17633 402.42546,760.17633C502.16553,760.17633 583.01742,738.71634 583.01742,712.23159C583.01742,711.10859 582.87175,709.99499 582.58573,708.89128L601.60903,634.72637L601.60903,634.70126z" id="imagebot_54"/>
   <path fill="#ffa600" id="imagebot_53" d="M391.659,235.42483C391.659,235.42483 342.28964,555.38848 276.42764,551.40517C210.56564,547.42186 132.45656,408.84684 132.45656,408.84684L200.95441,643.50314L200.95441,642.84181C395.992,679.48187 500.21434,660.1462 597.85815,642.84181L645.80948,414.67869C645.80948,414.67869 586.63544,561.90966 514.06144,540.69088C441.48743,519.4721 391.659,235.42483 391.659,235.42483z"/>
  </g>
  <path label="Layer 1" fill="#ffa600" stroke="#ffa225" id="imagebot_51" d="M328.57142,345.21933A59.28571,71.42857 0 1 1 209.99999,345.21933A59.28571,71.42857 0 1 1 328.57142,345.21933z" transform="translate(3.84375 0.0624999) matrix(0.880694 0 0 0.840976 127.556 -165.102)"/>
  <path label="Layer 1" fill="#ffd42a" transform="translate(3.84375 0.0624999) matrix(0.573997 0 0 0.501565 202.064 -58.032)" d="M328.57142,345.21933A59.28571,71.42857 0 1 1 209.99999,345.21933A59.28571,71.42857 0 1 1 328.57142,345.21933z" id="imagebot_50"/>
  <path label="Layer 1" fill="#ffffff" id="imagebot_49" d="M328.57142,345.21933A59.28571,71.42857 0 1 1 209.99999,345.21933A59.28571,71.42857 0 1 1 328.57142,345.21933z" transform="translate(3.84375 0.0624999) matrix(0.335455 0 0 0.317717 260.239 2.40538)"/>
  <g label="Layer 1" fill="url(#imagebot_46)" transform="translate(3.84375 0.0624999) matrix(0.919322 0 0 0.636173 5.51301 130.076)" id="imagebot_45">
   <path fill="url(#imagebot_48)" d="M389.4614,117.9233C386.19633,115.67138 359.00417,491.38052 283.93073,549.35224C208.85729,607.32397 121.46854,353.27179 121.46854,353.27179L183.37358,641.91528C314.58256,691.54077 499.01005,660.07359 611.04377,634.90252L648.00708,390.86081C648.00708,390.86081 609.2466,572.37208 521.1332,535.4343C433.0198,498.49652 389.4614,117.9233 389.4614,117.9233z" id="imagebot_47"/>
  </g>
  <path label="Layer 1" fill="#ffd42a" stroke="#ffa225" id="imagebot_44" d="M 590.67922 541.8535098807907 C 451.90089 574.1553598807907 315.21884 584.3593998807908 160.88144 543.1161998807908 L 161.13398 543.6598198807907 L 184.48211 646.9457798807907 C 183.89948 649.1290498807907 183.58747 651.3305798807908 183.58747 653.5683198807907 C 183.58747 691.7306598807907 270.25481 722.6527298807907 377.16891 722.6527298807907 C 484.08301 722.6527298807907 575.03606 683.5163698807908 575.03606 645.3540298807907 C 575.03606 643.7358798807907 575.23706 641.4169998807907 574.93047 639.8266398807907 C 582.75431 619.3945698807908 586.04041 577.4183698807907 593.53636 541.8896998807907 L 590.67922 541.8535098807907 z"/>
  <path label="Layer 1" fill="#ffa600" stroke="#000000" filter="url(#imagebot_43)" d="M 585.4726900000001 547.9144098807907 C 447.01837 580.2162598807907 310.65545 590.4202998807907 156.67839 549.1770998807907 L 156.93034 549.7207198807907 L 180.22396 653.0066798807907 C 179.64269 655.1899498807907 179.33141 657.3914798807907 179.33141 659.6292198807907 C 179.33141 697.7915598807907 265.7964 728.7136298807907 372.46088 728.7136298807907 C 479.12536 728.7136298807907 569.86605 689.5772698807907 569.86605 651.4149298807907 C 569.86605 649.7967798807907 570.06658 647.4778998807907 569.76071 645.8875398807907 C 577.56628 625.4554698807907 580.84471 583.4792698807908 588.32316 547.9505998807907 L 585.4726900000001 547.9144098807907 z" id="imagebot_42"/>
  <path label="Layer 1" fill="url(#imagebot_41)" id="imagebot_40" d="M 239.80357 682.3303598807908 L 224.77232 675.6116098807908 L 213.67857 582.6741098807908 L 227.86607 579.2678598807908 C 211.15912 576.7319398807907 194.25705 573.7244398807907 177.11607 570.1741098807908 L 177.36607 570.5803598807908 L 199.24107 645.5803598807908 C 198.69517 647.1659198807907 198.39732 648.7677398807907 198.39732 650.3928598807908 C 198.39732 662.5180098807907 213.92914 673.6582798807907 239.80357 682.3303598807908 z"/>
  <path label="Layer 1" opacity="0.69154" fill="#ffffff" filter="url(#imagebot_39)" id="imagebot_38" d="M 270.70982 690.4241098807908 L 244.39732 581.5491098807908 C 238.89942 580.8144198807908 233.4072 580.1089398807907 227.86607 579.2678598807908 L 213.67857 582.6741098807908 L 224.77232 675.6116098807908 L 239.80357 682.3303598807908 C 239.81257 682.3333598807907 239.82577 682.3273598807907 239.83477 682.3303598807908 C 248.8913 685.3643098807908 259.3469 688.0511498807907 270.70977 690.4241098807908 L 270.70982 690.4241098807908 z"/>
  <path label="Layer 1" fill="#ffd42a" id="imagebot_37" d="M 289.42857 693.7366098807908 L 277.58482 585.3303598807908 C 266.59587 584.2598998807907 255.54934 583.0393698807907 244.39732 581.5491098807908 L 270.70982 690.4241098807908 C 276.61034 691.6563398807907 283.00555 692.7047698807908 289.42857 693.7366098807908 z"/>
  <path label="Layer 1" opacity="0.68317" fill="#ffffff" id="imagebot_36" d="M 330.11607 698.5178598807908 L 295.39732 586.8928598807908 C 289.48506 586.4311798807908 283.54077 585.9105398807907 277.58482 585.3303598807908 L 289.42857 693.7366098807908 C 302.10953 695.7737698807907 315.7388 697.3707098807907 330.11607 698.5178598807908 z"/>
  <path label="Layer 1" fill="url(#imagebot_35)" id="imagebot_34" d="M 492.49107 687.7053598807908 L 504.80357 580.7991098807908 C 436.34634 589.4433398807907 367.4394 592.5184698807907 295.39732 586.8928598807908 L 330.11607 698.5178598807908 C 345.94602 699.7809198807907 362.46128 700.5803598807908 379.77232 700.5803598807908 C 421.72766 700.5803598807908 460.94825 695.5404798807907 492.49107 687.7053598807908 z"/>
  <path label="Layer 1" opacity="0.75743" fill="#ffffff" filter="url(#imagebot_33)" id="imagebot_32" d="M 525.77232 677.2678598807908 L 525.77232 577.8928598807908 C 518.78616 578.8900598807907 511.79639 579.9161098807907 504.80357 580.7991098807908 L 492.49107 687.7053598807908 C 492.63419 687.6697598807907 492.78578 687.6472598807907 492.92857 687.6116598807907 C 505.17583 684.5526098807907 516.19433 681.0597298807907 525.77232 677.2679098807907 L 525.77232 677.2678598807908 z"/>
  <path label="Layer 1" opacity="0.88557" fill="url(#imagebot_31)" id="imagebot_30" d="M 579.83482 569.2678598807908 C 561.79555 572.5223098807907 543.78808 575.3213098807907 525.77232 577.8928598807908 L 525.77232 677.2678598807908 C 550.2364 667.5828098807907 565.14732 655.9615098807907 565.14732 644.4241098807908 C 565.14732 643.2489598807907 565.3409 641.5790798807907 565.05362 640.4241098807908 C 572.38425 625.5857398807907 575.4677 595.1010798807907 582.49112 569.2991098807908 L 579.83487 569.2679098807907 L 579.83482 569.2678598807908 z"/>
  <path label="Layer 1" fill="#ffa600" stroke="#ffa225" transform="translate(3.84375 0.0624999) matrix(-0.880694 0 0 0.840976 874.614 2.58356)" d="M328.57142,345.21933A59.28571,71.42857 0 1 1 209.99999,345.21933A59.28571,71.42857 0 1 1 328.57142,345.21933z" id="imagebot_29"/>
  <path label="Layer 1" fill="#ffd42a" id="imagebot_28" d="M328.57142,345.21933A59.28571,71.42857 0 1 1 209.99999,345.21933A59.28571,71.42857 0 1 1 328.57142,345.21933z" transform="translate(3.84375 0.0624999) matrix(-0.573997 0 0 0.501565 800.106 109.653)"/>
  <path label="Layer 1" fill="#ffffff" transform="translate(3.84375 0.0624999) matrix(-0.335455 0 0 0.317717 741.931 170.091)" d="M328.57142,345.21933A59.28571,71.42857 0 1 1 209.99999,345.21933A59.28571,71.42857 0 1 1 328.57142,345.21933z" id="imagebot_27"/>
  <path label="Layer 1" fill="#ffa600" stroke="#ffa225" id="imagebot_26" d="M328.57142,345.21933A59.28571,71.42857 0 1 1 209.99999,345.21933A59.28571,71.42857 0 1 1 328.57142,345.21933z" transform="translate(3.84375 0.0624999) matrix(0.880694 0 0 0.840976 -155.287 10.6648)"/>
  <path label="Layer 1" fill="#ffd42a" transform="translate(3.84375 0.0624999) matrix(0.573997 0 0 0.501565 -80.7788 117.735)" d="M328.57142,345.21933A59.28571,71.42857 0 1 1 209.99999,345.21933A59.28571,71.42857 0 1 1 328.57142,345.21933z" id="imagebot_25"/>
  <path label="Layer 1" fill="#ffffff" id="imagebot_24" d="M328.57142,345.21933A59.28571,71.42857 0 1 1 209.99999,345.21933A59.28571,71.42857 0 1 1 328.57142,345.21933z" transform="translate(3.84375 0.0624999) matrix(0.335455 0 0 0.317717 -22.6037 178.172)"/>
  <path label="Layer 1" opacity="0.47264" fill="#ffffff" filter="url(#imagebot_19)" id="imagebot_23" d="M 179.72392 532.4781698807907 L 212.41518 539.1233798807907 L 154.55804 422.8532598807907 L 179.72392 532.4781698807907 z"/>
  <path label="Layer 1" fill="#ff932a" fill-rule="nonzero" id="imagebot_22" d="M 45.95166 332.2401798807907 C 60.152120000000004 348.1911998807907 82.61949 355.3190698807907 102.43301 348.3664098807907 C 127.65745 339.5150198807907 138.97187 311.2641798807907 127.70804 285.2778498807907 C 127.02463 283.7011698807907 126.26127 282.1896998807907 125.44807 280.7044498807907 C 125.57214 281.5933898807907 125.75119 282.4844598807907 125.82201 283.37210988079073 C 125.95374 285.0233298807907 125.989 286.6653398807907 125.94059 288.3036998807907 C 125.89219 289.94205988079074 125.75727 291.5736998807907 125.53402 293.1882498807907 C 125.31077 294.8027998807907 124.99961 296.3981298807907 124.60681 297.9779198807907 C 124.21402 299.5577298807907 123.73789 301.1309198807907 123.18086 302.6650298807907 C 122.62384 304.1991398807907 121.98985 305.6965098807907 121.27389 307.1739798807907 C 120.55792 308.6514498807907 119.75546 310.0948498807907 118.88587 311.5047498807907 C 118.01629 312.91463988079073 117.06985 314.2905298807907 116.05193 315.6218998807907 C 115.03401 316.9532598807907 113.94621 318.2557498807907 112.78527 319.49764988079073 C 111.62433 320.7395598807907 110.38035 321.92262988079074 109.08169 323.06410988079074 C 107.78303 324.2055998807907 106.42478 325.2958398807907 104.9937 326.3259698807907 C 103.56263 327.3561098807907 102.08399 328.3275598807907 100.5258 329.2353898807907 C 98.96761 330.1432098807907 97.3493 330.9976898807907 95.66929 331.77227988079073 C 93.9893 332.5468698807907 92.2471 333.2507298807907 90.45059 333.8811298807907 C 88.65408 334.5115298807907 86.84227 335.0547998807907 85.02301 335.5081098807907 C 83.20375 335.9614298807907 81.36978 336.3183798807907 79.53992 336.5994398807907 C 77.71004 336.8804998807907 75.86896 337.07394988079074 74.04061 337.18755988079073 C 72.21227 337.3011798807907 70.39229 337.3261998807907 68.57761 337.2771598807907 C 66.76294 337.2281598807907 64.95721 337.1152598807907 63.16833 336.9084498807907 C 61.37945 336.7016698807907 59.5988 336.4057198807907 57.84786 336.0459698807907 C 56.09692 335.6862098807907 54.36509 335.2501398807907 52.66423 334.7422198807907 C 50.96336 334.2343098807907 49.30859 333.6531698807907 47.66994 333.0019398807907 C 47.08622 332.76995988079074 46.52644 332.4898998807907 45.95166 332.24014988079074 L 45.95166 332.2401798807907 z"/>
  <path label="Layer 1" fill="#ff932a" fill-rule="nonzero" d="M 330.81468 155.46348988079072 C 345.01514 171.41450988079072 367.48251 178.54237988079072 387.29603 171.5897198807907 C 412.52047 162.7383298807907 423.83489 134.48748988079072 412.57106 108.50115988079071 C 411.88765 106.92447988079071 411.12429 105.41300988079071 410.31109 103.92775988079072 C 410.43516 104.81669988079071 410.61421 105.7077698807907 410.68503 106.59541988079071 C 410.81676 108.24663988079071 410.85202 109.88864988079071 410.80361 111.52700988079071 C 410.75521 113.1653698807907 410.62029 114.79700988079071 410.39704 116.4115598807907 C 410.17379 118.02610988079071 409.86263 119.62143988079072 409.46983 121.2012298807907 C 409.07704 122.78103988079071 408.60091 124.35422988079071 408.04388 125.88833988079071 C 407.48686 127.42244988079071 406.85287 128.9198198807907 406.13691 130.3972898807907 C 405.42094 131.87475988079072 404.61848 133.31815988079072 403.74889 134.7280598807907 C 402.87931 136.1379498807907 401.93287 137.5138398807907 400.91495 138.84520988079072 C 399.89703 140.1765698807907 398.80923 141.47905988079071 397.64829 142.7209598807907 C 396.48735 143.96286988079072 395.24337 145.1459398807907 393.94471 146.2874198807907 C 392.64605 147.4289098807907 391.2878 148.5191498807907 389.85672 149.54927988079072 C 388.42565 150.5794198807907 386.94701 151.5508698807907 385.38882 152.4586998807907 C 383.83063 153.36651988079072 382.21232 154.2209998807907 380.53231 154.9955898807907 C 378.85232 155.77017988079072 377.11012 156.4740398807907 375.31361 157.10443988079072 C 373.5171 157.7348398807907 371.70529 158.2781098807907 369.88603 158.73141988079072 C 368.06677 159.18473988079072 366.2328 159.5416898807907 364.40294 159.82274988079072 C 362.57306 160.10380988079072 360.73198 160.2972598807907 358.90363 160.4108698807907 C 357.07529 160.5244898807907 355.25531 160.5495098807907 353.44063 160.50046988079072 C 351.62596 160.4514698807907 349.82023 160.33856988079071 348.03135 160.13175988079072 C 346.24247 159.92497988079072 344.46182 159.6290298807907 342.71088 159.26927988079072 C 340.95994 158.9095198807907 339.22811 158.47344988079072 337.52725 157.9655298807907 C 335.82638 157.4576198807907 334.17161 156.8764798807907 332.53296 156.2252498807907 C 331.94924 155.9932698807907 331.38946 155.7132098807907 330.81468 155.4634598807907 L 330.81468 155.46348988079072 z" id="imagebot_21"/>
  <path label="Layer 1" fill="#ff932a" fill-rule="nonzero" id="imagebot_20" d="M 682.60089 325.16911988079073 C 668.40043 341.1201398807907 645.93306 348.24800988079073 626.11954 341.2953498807907 C 600.8951 332.4439598807907 589.58068 304.19311988079073 600.84451 278.2067898807907 C 601.52792 276.6301098807907 602.29128 275.11863988079074 603.10448 273.63338988079073 C 602.98041 274.5223298807907 602.80136 275.41339988079073 602.73054 276.3010498807907 C 602.59881 277.9522698807907 602.56355 279.59427988079074 602.61196 281.2326398807907 C 602.66036 282.8709998807907 602.79528 284.5026398807907 603.01853 286.1171898807907 C 603.24178 287.7317398807907 603.55294 289.3270698807907 603.94574 290.9068598807907 C 604.33853 292.4866698807907 604.81466 294.0598598807907 605.37169 295.5939698807907 C 605.92871 297.1280798807907 606.5627 298.6254498807907 607.27866 300.1029198807907 C 607.99463 301.58038988079073 608.79709 303.02378988079073 609.66668 304.4336898807907 C 610.53626 305.8435798807907 611.4827 307.2194698807907 612.50062 308.5508398807907 C 613.51854 309.8821998807907 614.60634 311.1846898807907 615.76728 312.4265898807907 C 616.92822 313.6684998807907 618.1722 314.8515698807907 619.47086 315.9930498807907 C 620.76952 317.1345398807907 622.12777 318.2247798807907 623.55885 319.2549098807907 C 624.98992 320.2850498807907 626.46856 321.2564998807907 628.02675 322.1643298807907 C 629.58494 323.07214988079073 631.20325 323.9266298807907 632.88326 324.7012198807907 C 634.56325 325.47580988079073 636.30545 326.1796698807907 638.10196 326.8100698807907 C 639.89847 327.4404698807907 641.71028 327.9837398807907 643.52954 328.4370498807907 C 645.3488 328.89036988079073 647.18277 329.2473198807907 649.01263 329.52837988079074 C 650.84251 329.8094398807907 652.68359 330.0028898807907 654.51194 330.1164998807907 C 656.34028 330.2301198807907 658.16026 330.2551398807907 659.97494 330.2060998807907 C 661.78961 330.1570998807907 663.59534 330.0441998807907 665.38422 329.83738988079074 C 667.1731 329.6306098807907 668.95375 329.3346598807907 670.70469 328.97490988079073 C 672.45563 328.61514988079074 674.18746 328.1790798807907 675.88832 327.6711598807907 C 677.58919 327.1632498807907 679.24396 326.5821098807907 680.88261 325.9308798807907 C 681.46633 325.6988998807907 682.02611 325.4188398807907 682.60089 325.1690898807907 L 682.60089 325.16911988079073 z"/>
  <path label="Layer 1" opacity="0.47264" fill="#ffffff" filter="url(#imagebot_19)" transform="translate(3.84375 0.0624999) matrix(-1 0 0 1 767.674 -82.8571)" d="M204.4516,615.27281L237.14286,621.91802L179.28572,505.6479L204.4516,615.27281z" id="imagebot_18"/>
  <path label="Layer 1" fill="#800000" fill-rule="nonzero" transform="translate(3.84375 0.0624999) matrix(0.560606 0 0 0.494118 221.793 89.6861)" d="M119.198,758.40778A66.67007,85.86297 0 1 1 -14.14214,758.40778A66.67007,85.86297 0 1 1 119.198,758.40778z" id="imagebot_17"/>
  <path label="Layer 1" fill="#aa0000" fill-rule="nonzero" transform="translate(3.84375 0.0624999) matrix(0.339761 0 0 0.261592 229.996 256.053)" id="imagebot_16" d="M119.198,758.40778A66.67007,85.86297 0 1 1 -14.14214,758.40778A66.67007,85.86297 0 1 1 119.198,758.40778z"/>
  <path label="Layer 1" fill="#ff2a2a" fill-rule="nonzero" d="M119.198,758.40778A66.67007,85.86297 0 1 1 -14.14214,758.40778A66.67007,85.86297 0 1 1 119.198,758.40778z" id="imagebot_15" transform="translate(3.84375 0.0624999) matrix(0.152893 0 0 0.11045 236.414 358.701)"/>
  <path label="Layer 1" fill="#ff2a2a" fill-rule="nonzero" transform="translate(3.84375 0.0624999) matrix(0.0679522 0 0 0.0639447 251.069 412.938)" id="imagebot_14" d="M119.198,758.40778A66.67007,85.86297 0 1 1 -14.14214,758.40778A66.67007,85.86297 0 1 1 119.198,758.40778z"/>
  <path label="Layer 1" fill="#ff2a2a" fill-rule="nonzero" d="M119.198,758.40778A66.67007,85.86297 0 1 1 -14.14214,758.40778A66.67007,85.86297 0 1 1 119.198,758.40778z" id="imagebot_13" transform="translate(3.84375 0.0624999) matrix(0.101928 0 0 0.0813841 230.03 407.199)"/>
  <path label="Layer 1" fill="#800000" fill-rule="nonzero" id="imagebot_12" d="M119.198,758.40778A66.67007,85.86297 0 1 1 -14.14214,758.40778A66.67007,85.86297 0 1 1 119.198,758.40778z" transform="translate(3.84375 0.0624999) matrix(0.560606 0 0 0.494118 466.25 85.6455)"/>
  <path label="Layer 1" fill="#aa0000" fill-rule="nonzero" d="M119.198,758.40778A66.67007,85.86297 0 1 1 -14.14214,758.40778A66.67007,85.86297 0 1 1 119.198,758.40778z" id="imagebot_11" transform="translate(3.84375 0.0624999) matrix(0.339761 0 0 0.261592 474.453 252.012)"/>
  <path label="Layer 1" fill="#ff2a2a" fill-rule="nonzero" transform="translate(3.84375 0.0624999) matrix(0.152893 0 0 0.11045 480.871 354.66)" id="imagebot_10" d="M119.198,758.40778A66.67007,85.86297 0 1 1 -14.14214,758.40778A66.67007,85.86297 0 1 1 119.198,758.40778z"/>
  <path label="Layer 1" fill="#ff2a2a" fill-rule="nonzero" d="M119.198,758.40778A66.67007,85.86297 0 1 1 -14.14214,758.40778A66.67007,85.86297 0 1 1 119.198,758.40778z" id="imagebot_9" transform="translate(3.84375 0.0624999) matrix(0.0679522 0 0 0.0639447 495.526 408.897)"/>
  <path label="Layer 1" fill="#ff2a2a" fill-rule="nonzero" transform="translate(3.84375 0.0624999) matrix(0.101928 0 0 0.0813841 474.487 403.158)" id="imagebot_8" d="M119.198,758.40778A66.67007,85.86297 0 1 1 -14.14214,758.40778A66.67007,85.86297 0 1 1 119.198,758.40778z"/>
  <path label="Layer 1" fill="#800000" fill-rule="nonzero" transform="translate(3.84375 0.0624999) matrix(0.560606 0 0 0.494118 344.022 75.5439)" d="M119.198,758.40778A66.67007,85.86297 0 1 1 -14.14214,758.40778A66.67007,85.86297 0 1 1 119.198,758.40778z" id="imagebot_7"/>
  <path label="Layer 1" fill="#aa0000" fill-rule="nonzero" transform="translate(3.84375 0.0624999) matrix(0.339761 0 0 0.261592 347.174 241.911)" id="imagebot_6" d="M119.198,758.40778A66.67007,85.86297 0 1 1 -14.14214,758.40778A66.67007,85.86297 0 1 1 119.198,758.40778z"/>
  <path label="Layer 1" fill="#ff2a2a" fill-rule="nonzero" d="M119.198,758.40778A66.67007,85.86297 0 1 1 -14.14214,758.40778A66.67007,85.86297 0 1 1 119.198,758.40778z" id="imagebot_5" transform="translate(3.84375 0.0624999) matrix(0.152893 0 0 0.11045 353.592 344.559)"/>
  <path label="Layer 1" fill="#ff2a2a" fill-rule="nonzero" transform="translate(3.84375 0.0624999) matrix(0.0679522 0 0 0.0639447 368.247 398.796)" id="imagebot_4" d="M119.198,758.40778A66.67007,85.86297 0 1 1 -14.14214,758.40778A66.67007,85.86297 0 1 1 119.198,758.40778z"/>
  <path label="Layer 1" fill="#ff2a2a" fill-rule="nonzero" d="M119.198,758.40778A66.67007,85.86297 0 1 1 -14.14214,758.40778A66.67007,85.86297 0 1 1 119.198,758.40778z" id="imagebot_3" transform="translate(3.84375 0.0624999) matrix(0.101928 0 0 0.0813841 347.208 393.056)"/>
  <title>Layer 1</title>
 </g>
</svg>